<svg width="20" height="20" viewBox="0 0 20 20" fill="none" xmlns="http://www.w3.org/2000/svg">
<path d="M17.5 10C17.5 14.1421 14.1421 17.5 10 17.5C9.00238 17.5 8.05025 17.3052 7.17958 16.9516C7.01294 16.8839 6.92962 16.8501 6.86227 16.835C6.79638 16.8202 6.74763 16.8148 6.68011 16.8148C6.61109 16.8148 6.53591 16.8273 6.38554 16.8524L3.42063 17.3466C3.11015 17.3983 2.95491 17.4242 2.84265 17.376C2.7444 17.3339 2.66611 17.2556 2.62397 17.1573C2.57582 17.0451 2.60169 16.8898 2.65344 16.5794L3.14759 13.6145C3.17265 13.4641 3.18518 13.3889 3.18517 13.3199C3.18516 13.2524 3.17976 13.2036 3.165 13.1377C3.1499 13.0704 3.11606 12.9871 3.04839 12.8204C2.69478 11.9497 2.5 10.9976 2.5 10C2.5 5.85786 5.85786 2.5 10 2.5C14.1421 2.5 17.5 5.85786 17.5 10Z" stroke="#44AB95" stroke-width="1.5" stroke-linecap="round" stroke-linejoin="round"/>
<path d="M8.27456 8.65453C8.58629 9.30381 9.01125 9.91234 9.54943 10.4505C10.0876 10.9887 10.6962 11.4137 11.3454 11.7254C11.4013 11.7522 11.4292 11.7656 11.4645 11.7759C11.5901 11.8125 11.7443 11.7862 11.8506 11.7101C11.8806 11.6887 11.9062 11.6631 11.9574 11.6119C12.114 11.4553 12.1923 11.377 12.271 11.3258C12.5679 11.1327 12.9507 11.1328 13.2476 11.3258C13.3263 11.377 13.4046 11.4553 13.5612 11.6119L13.6485 11.6991C13.8865 11.9372 14.0055 12.0562 14.0702 12.184C14.1987 12.4382 14.1987 12.7384 14.0702 12.9926C14.0055 13.1205 13.8865 13.2395 13.6485 13.4775L13.5778 13.5481C13.3406 13.7853 13.222 13.9039 13.0608 13.9945C12.8818 14.095 12.6039 14.1673 12.3987 14.1667C12.2137 14.1662 12.0873 14.1303 11.8345 14.0585C10.4758 13.6729 9.1938 12.9453 8.12423 11.8757C7.05466 10.8062 6.32707 9.52411 5.94144 8.16546C5.86968 7.91265 5.83381 7.78624 5.83326 7.60128C5.83264 7.39605 5.90492 7.11813 6.00544 6.93919C6.09602 6.77794 6.21463 6.65933 6.45185 6.42211L6.52245 6.35151C6.76048 6.11347 6.8795 5.99446 7.00732 5.92981C7.26153 5.80123 7.56174 5.80123 7.81595 5.92981C7.94377 5.99446 8.06278 6.11347 8.30082 6.35151L8.3881 6.43879C8.54469 6.59538 8.62298 6.67367 8.67417 6.7524C8.86721 7.04931 8.86721 7.43207 8.67417 7.72898C8.62298 7.80771 8.54469 7.886 8.3881 8.04259C8.3369 8.09379 8.3113 8.11939 8.28987 8.14931C8.21372 8.25566 8.18743 8.40985 8.22403 8.53542C8.23433 8.57076 8.24774 8.59868 8.27456 8.65453Z" fill="#44AB95" stroke="white" stroke-width="0.5" stroke-linecap="round" stroke-linejoin="round"/>
</svg>
